<svg width="51" height="40" viewBox="0 0 51 40" fill="none" xmlns="http://www.w3.org/2000/svg">
<rect width="51" height="40" rx="5" fill="#EB3131" fill-opacity="0.1"/>
<path d="M10.481 20.398H15.317V21.516H10.481V20.398ZM19.8813 19.631C20.67 19.631 21.307 19.891 21.7923 20.411C22.2777 20.9223 22.5203 21.5723 22.5203 22.361C22.5203 23.2017 22.2387 23.8733 21.6753 24.376C21.1207 24.8787 20.4057 25.13 19.5303 25.13C18.6983 25.13 18.0267 24.9003 17.5153 24.441C17.0127 23.9817 16.7397 23.3663 16.6963 22.595H17.9963C18.031 23.0457 18.187 23.401 18.4643 23.661C18.7503 23.921 19.1143 24.051 19.5563 24.051C20.033 24.051 20.4187 23.9037 20.7133 23.609C21.0167 23.3057 21.1683 22.8983 21.1683 22.387C21.1683 21.8843 21.0253 21.4727 20.7393 21.152C20.4533 20.8227 20.072 20.658 19.5953 20.658C18.9107 20.658 18.4037 20.9397 18.0743 21.503L16.8783 21.23L17.3203 16.68H22.1433V17.798H18.4903L18.2303 20.19C18.655 19.8173 19.2053 19.631 19.8813 19.631ZM26.4979 16.55C27.3646 16.55 28.0622 16.8143 28.5909 17.343C29.1282 17.863 29.3969 18.552 29.3969 19.41C29.3969 19.774 29.3362 20.1423 29.2149 20.515C29.1022 20.8877 28.9809 21.191 28.8509 21.425C28.7296 21.6503 28.5649 21.9233 28.3569 22.244L26.5499 25H24.9119L27.1739 21.789C26.8532 21.9017 26.5239 21.958 26.1859 21.958C25.4319 21.958 24.8122 21.711 24.3269 21.217C23.8416 20.723 23.5989 20.086 23.5989 19.306C23.5989 18.4913 23.8676 17.8283 24.4049 17.317C24.9422 16.8057 25.6399 16.55 26.4979 16.55ZM25.3279 20.502C25.6139 20.8053 25.9952 20.957 26.4719 20.957C26.9486 20.957 27.3256 20.8053 27.6029 20.502C27.8889 20.19 28.0319 19.8 28.0319 19.332C28.0319 18.8467 27.8889 18.4437 27.6029 18.123C27.3256 17.8023 26.9529 17.642 26.4849 17.642C26.0082 17.642 25.6269 17.8023 25.3409 18.123C25.0549 18.4437 24.9119 18.8467 24.9119 19.332C24.9119 19.8 25.0506 20.19 25.3279 20.502ZM32.8152 20.515C32.2692 20.515 31.8012 20.32 31.4112 19.93C31.0212 19.54 30.8262 19.072 30.8262 18.526C30.8262 17.9887 31.0212 17.525 31.4112 17.135C31.8012 16.745 32.2692 16.55 32.8152 16.55C33.3525 16.55 33.8162 16.745 34.2062 17.135C34.5962 17.525 34.7912 17.9887 34.7912 18.526C34.7912 19.072 34.5962 19.54 34.2062 19.93C33.8162 20.32 33.3525 20.515 32.8152 20.515ZM38.6912 16.68L33.0362 25H31.5802L37.2352 16.68H38.6912ZM32.8022 19.462C33.0709 19.462 33.2919 19.3753 33.4652 19.202C33.6472 19.0287 33.7382 18.8033 33.7382 18.526C33.7382 18.2573 33.6472 18.0363 33.4652 17.863C33.2919 17.6897 33.0709 17.603 32.8022 17.603C32.5422 17.603 32.3212 17.6897 32.1392 17.863C31.9659 18.0363 31.8792 18.2573 31.8792 18.526C31.8792 18.7947 31.9659 19.02 32.1392 19.202C32.3212 19.3753 32.5422 19.462 32.8022 19.462ZM38.9382 24.545C38.5482 24.935 38.0845 25.13 37.5472 25.13C37.0099 25.13 36.5462 24.935 36.1562 24.545C35.7662 24.155 35.5712 23.6913 35.5712 23.154C35.5712 22.608 35.7662 22.14 36.1562 21.75C36.5462 21.36 37.0099 21.165 37.5472 21.165C38.0845 21.165 38.5482 21.36 38.9382 21.75C39.3282 22.14 39.5232 22.608 39.5232 23.154C39.5232 23.6913 39.3282 24.155 38.9382 24.545ZM36.8842 23.817C37.0575 23.9903 37.2785 24.077 37.5472 24.077C37.8159 24.077 38.0369 23.9903 38.2102 23.817C38.3835 23.6437 38.4702 23.4227 38.4702 23.154C38.4702 22.8853 38.3835 22.6643 38.2102 22.491C38.0369 22.309 37.8159 22.218 37.5472 22.218C37.2785 22.218 37.0575 22.309 36.8842 22.491C36.7109 22.6643 36.6242 22.8853 36.6242 23.154C36.6242 23.4227 36.7109 23.6437 36.8842 23.817Z" fill="#EB3131"/>
</svg>
