<svg width="220" height="40" viewBox="0 0 220 40" fill="none" xmlns="http://www.w3.org/2000/svg">
<circle opacity="0.1" cx="20" cy="20" r="20" fill="#413DEE"/>
<path d="M23.3333 14.3334C23.3333 14.245 23.2982 14.1602 23.2357 14.0977C23.1732 14.0352 23.0884 14 23 14H21.3333C20.4941 13.9582 19.6724 14.2503 19.0478 14.8124C18.4232 15.3745 18.0465 16.161 18 17V18.8H16.3333C16.2449 18.8 16.1601 18.8352 16.0976 18.8977C16.0351 18.9602 16 19.045 16 19.1334V20.8667C16 20.9551 16.0351 21.0399 16.0976 21.1024C16.1601 21.1649 16.2449 21.2 16.3333 21.2H18V25.6667C18 25.7551 18.0351 25.8399 18.0976 25.9024C18.1601 25.9649 18.2449 26 18.3333 26H20.3333C20.4217 26 20.5065 25.9649 20.569 25.9024C20.6315 25.8399 20.6667 25.7551 20.6667 25.6667V21.2H22.4133C22.4875 21.2011 22.5598 21.1774 22.619 21.1328C22.6782 21.0881 22.7207 21.025 22.74 20.9534L23.22 19.22C23.2333 19.1708 23.235 19.1191 23.2252 19.0691C23.2154 19.019 23.1942 18.9719 23.1633 18.9313C23.1324 18.8908 23.0926 18.8578 23.0469 18.8351C23.0013 18.8123 22.951 18.8003 22.9 18.8H20.6667V17C20.6832 16.835 20.7607 16.6821 20.884 16.5712C21.0073 16.4602 21.1675 16.3992 21.3333 16.4H23C23.0884 16.4 23.1732 16.3649 23.2357 16.3024C23.2982 16.2399 23.3333 16.1551 23.3333 16.0667V14.3334Z" fill="#413DEE"/>
<circle opacity="0.1" cx="80" cy="20" r="20" fill="#413DEE"/>
<path d="M77.96 24.4697C78.8046 24.475 79.6418 24.3125 80.4231 23.9918C81.2044 23.671 81.9143 23.1983 82.5115 22.6011C83.1087 22.0039 83.5814 21.2941 83.9021 20.5128C84.2229 19.7315 84.3853 18.8942 84.38 18.0497V17.7547C84.8178 17.4339 85.1967 17.0398 85.5 16.5897C85.0878 16.77 84.6516 16.8895 84.205 16.9447C84.6785 16.6626 85.0337 16.2185 85.205 15.6947C84.7638 15.9594 84.2799 16.1455 83.775 16.2447C83.435 15.8823 82.985 15.6422 82.4947 15.5614C82.0045 15.4805 81.5012 15.5635 81.0629 15.7975C80.6245 16.0315 80.2755 16.4034 80.0698 16.8557C79.8641 17.308 79.8132 17.8155 79.925 18.2997C79.028 18.2556 78.1504 18.0232 77.3492 17.6174C76.548 17.2117 75.8413 16.6417 75.275 15.9447C74.9895 16.4403 74.9029 17.0258 75.0329 17.5828C75.1628 18.1398 75.4996 18.6266 75.975 18.9447C75.6243 18.9311 75.2817 18.8352 74.975 18.6647V18.6897C74.9719 19.2076 75.1464 19.7109 75.4694 20.1158C75.7923 20.5207 76.2443 20.8026 76.75 20.9147C76.4238 21.0024 76.0821 21.0161 75.75 20.9547C75.8964 21.3964 76.1758 21.782 76.55 22.0586C76.9242 22.3352 77.3748 22.4892 77.84 22.4997C77.0446 23.1399 76.056 23.4924 75.035 23.4997C74.856 23.4945 74.6774 23.4795 74.5 23.4547C75.5335 24.1131 76.7346 24.4603 77.96 24.4547" fill="#413DEE"/>
<circle opacity="0.1" cx="140" cy="20" r="20" fill="#413DEE"/>
<path d="M140 16.795C138.227 16.795 136.795 18.2262 136.795 19.9997C136.795 21.7731 138.227 23.2044 140 23.2044C141.774 23.2044 143.205 21.7731 143.205 19.9997C143.205 18.2262 141.774 16.795 140 16.795ZM140 22.0825C138.853 22.0825 137.917 21.1466 137.917 19.9997C137.917 18.8528 138.853 17.9169 140 17.9169C141.147 17.9169 142.083 18.8528 142.083 19.9997C142.083 21.1466 141.147 22.0825 140 22.0825ZM143.336 15.9169C142.922 15.9169 142.588 16.2512 142.588 16.6653C142.588 17.0794 142.922 17.4137 143.336 17.4137C143.75 17.4137 144.084 17.0809 144.084 16.6653C144.085 16.567 144.065 16.4696 144.028 16.3787C143.99 16.2879 143.935 16.2053 143.866 16.1358C143.796 16.0663 143.713 16.0112 143.623 15.9736C143.532 15.936 143.434 15.9167 143.336 15.9169ZM146.247 19.9997C146.247 19.1372 146.255 18.2825 146.206 17.4216C146.158 16.4216 145.93 15.5341 145.199 14.8028C144.466 14.07 143.58 13.8434 142.58 13.795C141.717 13.7466 140.863 13.7544 140.002 13.7544C139.139 13.7544 138.284 13.7466 137.424 13.795C136.424 13.8434 135.536 14.0716 134.805 14.8028C134.072 15.5356 133.845 16.4216 133.797 17.4216C133.749 18.2841 133.756 19.1387 133.756 19.9997C133.756 20.8606 133.749 21.7169 133.797 22.5778C133.845 23.5778 134.074 24.4653 134.805 25.1966C135.538 25.9294 136.424 26.1559 137.424 26.2044C138.286 26.2528 139.141 26.245 140.002 26.245C140.864 26.245 141.719 26.2528 142.58 26.2044C143.58 26.1559 144.467 25.9278 145.199 25.1966C145.931 24.4637 146.158 23.5778 146.206 22.5778C146.256 21.7169 146.247 20.8622 146.247 19.9997ZM144.872 23.6841C144.758 23.9684 144.62 24.1809 144.4 24.3997C144.18 24.62 143.969 24.7575 143.684 24.8716C142.863 25.1981 140.911 25.1247 140 25.1247C139.089 25.1247 137.136 25.1981 136.314 24.8731C136.03 24.7591 135.817 24.6216 135.599 24.4012C135.378 24.1809 135.241 23.97 135.127 23.6856C134.802 22.8622 134.875 20.9106 134.875 19.9997C134.875 19.0887 134.802 17.1356 135.127 16.3137C135.241 16.0294 135.378 15.8169 135.599 15.5981C135.819 15.3794 136.03 15.2403 136.314 15.1262C137.136 14.8012 139.089 14.8747 140 14.8747C140.911 14.8747 142.864 14.8012 143.686 15.1262C143.97 15.2403 144.183 15.3778 144.402 15.5981C144.622 15.8184 144.759 16.0294 144.874 16.3137C145.199 17.1356 145.125 19.0887 145.125 19.9997C145.125 20.9106 145.199 22.8622 144.872 23.6841Z" fill="#413DEE"/>
<circle opacity="0.1" cx="200" cy="20" r="20" fill="#413DEE"/>
<path fill-rule="evenodd" clip-rule="evenodd" d="M198.286 17.979H200.762V19.2123C201.118 18.503 202.033 17.8657 203.407 17.8657C206.041 17.8657 206.666 19.2777 206.666 21.8683V26.6663H204V22.4583C204 20.983 203.643 20.151 202.735 20.151C201.476 20.151 200.952 21.0477 200.952 22.4577V26.6663H198.286V17.979ZM193.713 26.553H196.38V17.8657H193.713V26.553ZM196.762 15.033C196.762 15.2565 196.717 15.4778 196.631 15.6841C196.545 15.8903 196.419 16.0773 196.26 16.2343C195.937 16.5548 195.501 16.7341 195.046 16.733C194.593 16.7327 194.157 16.5538 193.834 16.235C193.676 16.0775 193.55 15.8902 193.464 15.684C193.378 15.4777 193.333 15.2565 193.333 15.033C193.333 14.5817 193.513 14.1497 193.835 13.831C194.158 13.5118 194.593 13.3328 195.047 13.333C195.502 13.333 195.938 13.5123 196.26 13.831C196.581 14.1497 196.762 14.5817 196.762 15.033Z" fill="#413DEE"/>
</svg>
