<svg width="195" height="11" viewBox="0 0 195 11" fill="none" xmlns="http://www.w3.org/2000/svg">
<path d="M7.126 0.199999H8.904L5.362 5.478V10H3.892V5.478L0.336 0.199999H2.1L4.564 3.868H4.676L7.126 0.199999ZM31.5668 8.698C30.6428 9.65933 29.4762 10.14 28.0668 10.14C26.6575 10.14 25.4862 9.664 24.5528 8.712C23.6195 7.75067 23.1528 6.54667 23.1528 5.1C23.1528 3.66267 23.6195 2.46333 24.5528 1.502C25.4862 0.540666 26.6575 0.0599995 28.0668 0.0599995C29.4668 0.0599995 30.6335 0.540666 31.5668 1.502C32.5002 2.46333 32.9668 3.66267 32.9668 5.1C32.9668 6.53733 32.5002 7.73667 31.5668 8.698ZM25.6168 7.732C26.2702 8.432 27.0868 8.782 28.0668 8.782C29.0468 8.782 29.8588 8.432 30.5028 7.732C31.1468 7.02267 31.4688 6.14533 31.4688 5.1C31.4688 4.05467 31.1422 3.182 30.4888 2.482C29.8448 1.77267 29.0375 1.418 28.0668 1.418C27.0868 1.418 26.2702 1.77267 25.6168 2.482C24.9728 3.182 24.6508 4.05467 24.6508 5.1C24.6508 6.14533 24.9728 7.02267 25.6168 7.732ZM56.6325 0.199999V6.262C56.6325 7.51267 56.2778 8.474 55.5685 9.146C54.8685 9.80867 53.9352 10.14 52.7685 10.14C51.6018 10.14 50.6592 9.80867 49.9405 9.146C49.2218 8.474 48.8625 7.51267 48.8625 6.262V0.199999H50.3325V6.192C50.3325 7.02267 50.5565 7.662 51.0045 8.11C51.4525 8.558 52.0405 8.782 52.7685 8.782C53.4965 8.782 54.0752 8.56267 54.5045 8.124C54.9432 7.676 55.1625 7.032 55.1625 6.192V0.199999H56.6325ZM80.1057 10H78.5097L76.2417 5.996H74.4217V10H72.9797V0.199999H76.6057C77.5484 0.199999 78.295 0.456666 78.8457 0.969999C79.4057 1.48333 79.6857 2.16467 79.6857 3.014C79.6857 3.69533 79.5037 4.26933 79.1397 4.736C78.785 5.20267 78.2904 5.534 77.6557 5.73L80.1057 10ZM74.4217 1.474V4.722H76.4097C76.9697 4.722 77.4084 4.57267 77.7257 4.274C78.0524 3.97533 78.2157 3.57867 78.2157 3.084C78.2157 2.58 78.0524 2.188 77.7257 1.908C77.4084 1.61867 76.9697 1.474 76.4097 1.474H74.4217ZM114.972 8.67H119.97V10H113.53V0.199999H114.972V8.67ZM143.075 8.698C142.151 9.65933 140.984 10.14 139.575 10.14C138.165 10.14 136.994 9.664 136.061 8.712C135.127 7.75067 134.661 6.54667 134.661 5.1C134.661 3.66267 135.127 2.46333 136.061 1.502C136.994 0.540666 138.165 0.0599995 139.575 0.0599995C140.975 0.0599995 142.141 0.540666 143.075 1.502C144.008 2.46333 144.475 3.66267 144.475 5.1C144.475 6.53733 144.008 7.73667 143.075 8.698ZM137.125 7.732C137.778 8.432 138.595 8.782 139.575 8.782C140.555 8.782 141.367 8.432 142.011 7.732C142.655 7.02267 142.977 6.14533 142.977 5.1C142.977 4.05467 142.65 3.182 141.997 2.482C141.353 1.77267 140.545 1.418 139.575 1.418C138.595 1.418 137.778 1.77267 137.125 2.482C136.481 3.182 136.159 4.05467 136.159 5.1C136.159 6.14533 136.481 7.02267 137.125 7.732ZM164.782 4.82H169.052V10H167.876L167.722 8.936H167.624C166.849 9.73867 165.832 10.14 164.572 10.14C163.191 10.14 162.085 9.68733 161.254 8.782C160.433 7.86733 160.022 6.68667 160.022 5.24C160.022 3.74667 160.475 2.51 161.38 1.53C162.285 0.55 163.457 0.0599995 164.894 0.0599995C166.023 0.0599995 166.947 0.339999 167.666 0.899999C168.394 1.46 168.833 2.17867 168.982 3.056H167.4C167.232 2.56133 166.929 2.16467 166.49 1.866C166.061 1.56733 165.529 1.418 164.894 1.418C163.886 1.418 163.069 1.77733 162.444 2.496C161.828 3.20533 161.52 4.11533 161.52 5.226C161.52 6.28067 161.809 7.144 162.388 7.816C162.967 8.47867 163.755 8.81 164.754 8.81C165.557 8.81 166.229 8.61867 166.77 8.236C167.321 7.844 167.596 7.28867 167.596 6.57V5.996H164.782V4.82ZM193.291 8.698C192.367 9.65933 191.201 10.14 189.791 10.14C188.382 10.14 187.211 9.664 186.277 8.712C185.344 7.75067 184.877 6.54667 184.877 5.1C184.877 3.66267 185.344 2.46333 186.277 1.502C187.211 0.540666 188.382 0.0599995 189.791 0.0599995C191.191 0.0599995 192.358 0.540666 193.291 1.502C194.225 2.46333 194.691 3.66267 194.691 5.1C194.691 6.53733 194.225 7.73667 193.291 8.698ZM187.341 7.732C187.995 8.432 188.811 8.782 189.791 8.782C190.771 8.782 191.583 8.432 192.227 7.732C192.871 7.02267 193.193 6.14533 193.193 5.1C193.193 4.05467 192.867 3.182 192.213 2.482C191.569 1.77267 190.762 1.418 189.791 1.418C188.811 1.418 187.995 1.77267 187.341 2.482C186.697 3.182 186.375 4.05467 186.375 5.1C186.375 6.14533 186.697 7.02267 187.341 7.732Z" fill="#141414"/>
</svg>
